<svg xmlns="http://www.w3.org/2000/svg" viewBox="0 0 800 400" width="800" height="400">
  <style>
    @keyframes drawLine {
      to { stroke-dashoffset: 0; }
    }
    @keyframes fadeInPoint {
      from { opacity: 0; }
      to { opacity: 1; }
    }
    .data-line-0 {
      stroke-dasharray: 1171;
      stroke-dashoffset: 1171;
      animation: drawLine 2s ease-out forwards;
    }
    .data-point {
      opacity: 0;
      animation: fadeInPoint 0.5s ease-out forwards;
    }
    .chart-bg { fill: #fff; }
    .chart-text { fill: #24292e; }
    .chart-muted { fill: #6a737d; }
    .chart-grid { stroke: #eee; }
    .chart-axis { stroke: #6a737d; }
    @media (prefers-color-scheme: dark) {
      .chart-bg { fill: #0d1117; }
      .chart-text { fill: #e6edf3; }
      .chart-muted { fill: #8b949e; }
      .chart-grid { stroke: #21262d; }
      .chart-axis { stroke: #8b949e; }
    }
  </style>
  <rect width="800" height="400" class="chart-bg" />
  <text x="400" y="14" text-anchor="middle" class="chart-text" font-size="16" font-weight="bold" font-family="-apple-system, BlinkMacSystemFont, 'Segoe UI', Helvetica, Arial, sans-serif">Top Repositories</text>
  <g class="legend">
    <rect x="340" y="31" width="12" height="3" fill="#dfb317" />
    <line x1="340" y1="32.5" x2="352" y2="32.5" stroke="#dfb317" stroke-width="2" />
    <text x="356" y="36" class="chart-text" font-size="10" font-family="-apple-system, BlinkMacSystemFont, 'Segoe UI', Helvetica, Arial, sans-serif">vpn-configs-for-russia</text>
  </g>
  <g class="grid">
    <line x1="60" y1="350" x2="770" y2="350" class="chart-grid" stroke-opacity="0.3" />
    <text x="52" y="354" text-anchor="end" class="chart-muted" font-size="11" font-family="-apple-system, BlinkMacSystemFont, 'Segoe UI', Helvetica, Arial, sans-serif">0</text>
    <line x1="60" y1="290" x2="770" y2="290" class="chart-grid" stroke-opacity="0.3" />
    <text x="52" y="294" text-anchor="end" class="chart-muted" font-size="11" font-family="-apple-system, BlinkMacSystemFont, 'Segoe UI', Helvetica, Arial, sans-serif">2K</text>
    <line x1="60" y1="230" x2="770" y2="230" class="chart-grid" stroke-opacity="0.3" />
    <text x="52" y="234" text-anchor="end" class="chart-muted" font-size="11" font-family="-apple-system, BlinkMacSystemFont, 'Segoe UI', Helvetica, Arial, sans-serif">4K</text>
    <line x1="60" y1="170" x2="770" y2="170" class="chart-grid" stroke-opacity="0.3" />
    <text x="52" y="174" text-anchor="end" class="chart-muted" font-size="11" font-family="-apple-system, BlinkMacSystemFont, 'Segoe UI', Helvetica, Arial, sans-serif">6K</text>
    <line x1="60" y1="110" x2="770" y2="110" class="chart-grid" stroke-opacity="0.3" />
    <text x="52" y="114" text-anchor="end" class="chart-muted" font-size="11" font-family="-apple-system, BlinkMacSystemFont, 'Segoe UI', Helvetica, Arial, sans-serif">8K</text>
    <line x1="60" y1="50" x2="770" y2="50" class="chart-grid" stroke-opacity="0.3" />
    <text x="52" y="54" text-anchor="end" class="chart-muted" font-size="11" font-family="-apple-system, BlinkMacSystemFont, 'Segoe UI', Helvetica, Arial, sans-serif">10K</text>
  </g>
  <g class="milestones">
    
  </g>
  <g class="x-axis">
    <text x="60" y="370" text-anchor="middle" class="chart-muted" font-size="11" font-family="-apple-system, BlinkMacSystemFont, 'Segoe UI', Helvetica, Arial, sans-serif">Nov 15</text>
    <text x="133.44827586206895" y="370" text-anchor="middle" class="chart-muted" font-size="11" font-family="-apple-system, BlinkMacSystemFont, 'Segoe UI', Helvetica, Arial, sans-serif">Dec 18</text>
    <text x="206.89655172413794" y="370" text-anchor="middle" class="chart-muted" font-size="11" font-family="-apple-system, BlinkMacSystemFont, 'Segoe UI', Helvetica, Arial, sans-serif">Jan 21</text>
    <text x="280.34482758620686" y="370" text-anchor="middle" class="chart-muted" font-size="11" font-family="-apple-system, BlinkMacSystemFont, 'Segoe UI', Helvetica, Arial, sans-serif">Feb 23</text>
    <text x="353.7931034482759" y="370" text-anchor="middle" class="chart-muted" font-size="11" font-family="-apple-system, BlinkMacSystemFont, 'Segoe UI', Helvetica, Arial, sans-serif">Mar 28</text>
    <text x="427.2413793103448" y="370" text-anchor="middle" class="chart-muted" font-size="11" font-family="-apple-system, BlinkMacSystemFont, 'Segoe UI', Helvetica, Arial, sans-serif">May 1</text>
    <text x="500.6896551724138" y="370" text-anchor="middle" class="chart-muted" font-size="11" font-family="-apple-system, BlinkMacSystemFont, 'Segoe UI', Helvetica, Arial, sans-serif">Jun 3</text>
    <text x="574.1379310344828" y="370" text-anchor="middle" class="chart-muted" font-size="11" font-family="-apple-system, BlinkMacSystemFont, 'Segoe UI', Helvetica, Arial, sans-serif">Jul 6</text>
    <text x="647.5862068965517" y="370" text-anchor="middle" class="chart-muted" font-size="11" font-family="-apple-system, BlinkMacSystemFont, 'Segoe UI', Helvetica, Arial, sans-serif">Aug 8</text>
    <text x="721.0344827586207" y="370" text-anchor="middle" class="chart-muted" font-size="11" font-family="-apple-system, BlinkMacSystemFont, 'Segoe UI', Helvetica, Arial, sans-serif">Sep 11</text>
    <text x="770" y="370" text-anchor="middle" class="chart-muted" font-size="11" font-family="-apple-system, BlinkMacSystemFont, 'Segoe UI', Helvetica, Arial, sans-serif">Oct 3</text>
  </g>
  <line x1="60" y1="50" x2="60" y2="350" class="chart-axis" stroke-width="1" />
  <line x1="60" y1="350" x2="770" y2="350" class="chart-axis" stroke-width="1" />
  
  <path d="M60,349.97 C68.16091954022988,349.5 76.32183908045977,349.065 84.48275862068965,348.56 C92.64367816091954,348.055 100.80459770114942,347.865 108.9655172413793,346.94 C117.12643678160919,346.015 125.28735632183907,343.975 133.44827586206895,343.01 C141.60919540229884,342.04499999999996 149.77011494252872,341.85999999999996 157.9310344827586,341.15 C166.0919540229885,340.44 174.2528735632184,340.145 182.41379310344828,338.75 C190.57471264367817,337.355 198.73563218390805,334.54499999999996 206.89655172413794,332.78 C215.05747126436782,331.015 223.2183908045977,330.005 231.3793103448276,328.16 C239.54022988505747,326.31500000000005 247.70114942528735,324.055 255.86206896551724,321.71 C264.0229885057471,319.36499999999995 272.183908045977,316.61999999999995 280.34482758620686,314.09 C288.50574712643675,311.55999999999995 296.6666666666667,310.5 304.82758620689657,306.53 C312.98850574712645,302.56 321.14942528735634,296.9 329.3103448275862,290.27 C337.4712643678161,283.64 345.632183908046,273.85 353.7931034482759,266.75 C361.95402298850576,259.65 370.11494252873564,252.955 378.2758620689655,247.67000000000002 C386.4367816091954,242.38500000000002 394.5977011494253,238.98000000000002 402.7586206896552,235.04000000000002 C410.91954022988506,231.10000000000002 419.08045977011494,227.71 427.2413793103448,224.03 C435.4022988505747,220.35 443.5632183908046,220.24 451.7241379310345,212.96 C459.88505747126436,205.68 468.04597701149424,187.615 476.2068965517241,180.35 C484.367816091954,173.08499999999998 492.5287356321839,174.865 500.6896551724138,169.37 C508.85057471264366,163.875 517.0114942528736,152.42 525.1724137931035,147.38 C533.3333333333334,142.34 541.4942528735633,141.73499999999999 549.6551724137931,139.13 C557.816091954023,136.525 565.9770114942529,134.06 574.1379310344828,131.75 C582.2988505747127,129.44 590.4597701149426,127.16000000000001 598.6206896551724,125.27000000000001 C606.7816091954023,123.38000000000001 614.9425287356322,122.27499999999999 623.1034482758621,120.41 C631.264367816092,118.545 639.4252873563219,116.355 647.5862068965517,114.08000000000001 C655.7471264367816,111.80500000000002 663.9080459770115,108.75500000000002 672.0689655172414,106.76000000000002 C680.2298850574713,104.76500000000001 688.3908045977012,104.145 696.551724137931,102.10999999999999 C704.7126436781609,100.07499999999997 712.8735632183908,97.30499999999998 721.0344827586207,94.54999999999998 C729.1954022988506,91.79499999999999 737.3563218390805,88.17999999999998 745.5172413793103,85.57999999999998 C753.6781609195402,82.97999999999999 761.8390804597701,81.15999999999998 770,78.94999999999999" fill="none" stroke="#dfb317" stroke-width="2.5" class="data-line-0" />
  <g class="points">
    
    <circle cx="60" cy="349.97" r="4" fill="#dfb317" class="data-point" style="animation-delay: 1.50s" />
    <circle cx="84.48275862068965" cy="348.56" r="4" fill="#dfb317" class="data-point" style="animation-delay: 1.55s" />
    <circle cx="108.9655172413793" cy="346.94" r="4" fill="#dfb317" class="data-point" style="animation-delay: 1.60s" />
    <circle cx="133.44827586206895" cy="343.01" r="4" fill="#dfb317" class="data-point" style="animation-delay: 1.65s" />
    <circle cx="157.9310344827586" cy="341.15" r="4" fill="#dfb317" class="data-point" style="animation-delay: 1.70s" />
    <circle cx="182.41379310344828" cy="338.75" r="4" fill="#dfb317" class="data-point" style="animation-delay: 1.75s" />
    <circle cx="206.89655172413794" cy="332.78" r="4" fill="#dfb317" class="data-point" style="animation-delay: 1.80s" />
    <circle cx="231.3793103448276" cy="328.16" r="4" fill="#dfb317" class="data-point" style="animation-delay: 1.85s" />
    <circle cx="255.86206896551724" cy="321.71" r="4" fill="#dfb317" class="data-point" style="animation-delay: 1.90s" />
    <circle cx="280.34482758620686" cy="314.09" r="4" fill="#dfb317" class="data-point" style="animation-delay: 1.95s" />
    <circle cx="304.82758620689657" cy="306.53" r="4" fill="#dfb317" class="data-point" style="animation-delay: 2.00s" />
    <circle cx="329.3103448275862" cy="290.27" r="4" fill="#dfb317" class="data-point" style="animation-delay: 2.05s" />
    <circle cx="353.7931034482759" cy="266.75" r="4" fill="#dfb317" class="data-point" style="animation-delay: 2.10s" />
    <circle cx="378.2758620689655" cy="247.67000000000002" r="4" fill="#dfb317" class="data-point" style="animation-delay: 2.15s" />
    <circle cx="402.7586206896552" cy="235.04000000000002" r="4" fill="#dfb317" class="data-point" style="animation-delay: 2.20s" />
    <circle cx="427.2413793103448" cy="224.03" r="4" fill="#dfb317" class="data-point" style="animation-delay: 2.25s" />
    <circle cx="451.7241379310345" cy="212.96" r="4" fill="#dfb317" class="data-point" style="animation-delay: 2.30s" />
    <circle cx="476.2068965517241" cy="180.35" r="4" fill="#dfb317" class="data-point" style="animation-delay: 2.35s" />
    <circle cx="500.6896551724138" cy="169.37" r="4" fill="#dfb317" class="data-point" style="animation-delay: 2.40s" />
    <circle cx="525.1724137931035" cy="147.38" r="4" fill="#dfb317" class="data-point" style="animation-delay: 2.45s" />
    <circle cx="549.6551724137931" cy="139.13" r="4" fill="#dfb317" class="data-point" style="animation-delay: 2.50s" />
    <circle cx="574.1379310344828" cy="131.75" r="4" fill="#dfb317" class="data-point" style="animation-delay: 2.55s" />
    <circle cx="598.6206896551724" cy="125.27000000000001" r="4" fill="#dfb317" class="data-point" style="animation-delay: 2.60s" />
    <circle cx="623.1034482758621" cy="120.41" r="4" fill="#dfb317" class="data-point" style="animation-delay: 2.65s" />
    <circle cx="647.5862068965517" cy="114.08000000000001" r="4" fill="#dfb317" class="data-point" style="animation-delay: 2.70s" />
    <circle cx="672.0689655172414" cy="106.76000000000002" r="4" fill="#dfb317" class="data-point" style="animation-delay: 2.75s" />
    <circle cx="696.551724137931" cy="102.10999999999999" r="4" fill="#dfb317" class="data-point" style="animation-delay: 2.80s" />
    <circle cx="721.0344827586207" cy="94.54999999999998" r="4" fill="#dfb317" class="data-point" style="animation-delay: 2.85s" />
    <circle cx="745.5172413793103" cy="85.57999999999998" r="4" fill="#dfb317" class="data-point" style="animation-delay: 2.90s" />
    <circle cx="770" cy="78.94999999999999" r="4" fill="#dfb317" class="data-point" style="animation-delay: 2.95s" />
  </g>
</svg>