<svg xmlns="http://www.w3.org/2000/svg" viewBox="0 0 800 400" width="800" height="400">
  <style>
    @keyframes drawLine {
      to { stroke-dashoffset: 0; }
    }
    @keyframes fadeInPoint {
      from { opacity: 0; }
      to { opacity: 1; }
    }
    .data-line-0 {
      stroke-dasharray: 1176;
      stroke-dashoffset: 1176;
      animation: drawLine 2s ease-out forwards;
    }
    .data-point {
      opacity: 0;
      animation: fadeInPoint 0.5s ease-out forwards;
    }
    .chart-bg { fill: #fff; }
    .chart-text { fill: #24292e; }
    .chart-muted { fill: #6a737d; }
    .chart-grid { stroke: #eee; }
    .chart-axis { stroke: #6a737d; }
    @media (prefers-color-scheme: dark) {
      .chart-bg { fill: #0d1117; }
      .chart-text { fill: #e6edf3; }
      .chart-muted { fill: #8b949e; }
      .chart-grid { stroke: #21262d; }
      .chart-axis { stroke: #8b949e; }
    }
  </style>
  <rect width="800" height="400" class="chart-bg" />
  <text x="400" y="14" text-anchor="middle" class="chart-text" font-size="16" font-weight="bold" font-family="-apple-system, BlinkMacSystemFont, 'Segoe UI', Helvetica, Arial, sans-serif">Top Repositories</text>
  <g class="legend">
    <rect x="340" y="31" width="12" height="3" fill="#dfb317" />
    <line x1="340" y1="32.5" x2="352" y2="32.5" stroke="#dfb317" stroke-width="2" />
    <text x="356" y="36" class="chart-text" font-size="10" font-family="-apple-system, BlinkMacSystemFont, 'Segoe UI', Helvetica, Arial, sans-serif">vpn-configs-for-russia</text>
  </g>
  <g class="grid">
    <line x1="60" y1="350" x2="770" y2="350" class="chart-grid" stroke-opacity="0.3" />
    <text x="52" y="354" text-anchor="end" class="chart-muted" font-size="11" font-family="-apple-system, BlinkMacSystemFont, 'Segoe UI', Helvetica, Arial, sans-serif">0</text>
    <line x1="60" y1="280.57162693820874" x2="770" y2="280.57162693820874" class="chart-grid" stroke-opacity="0.3" />
    <text x="52" y="284.57162693820874" text-anchor="end" class="chart-muted" font-size="11" font-family="-apple-system, BlinkMacSystemFont, 'Segoe UI', Helvetica, Arial, sans-serif">2K</text>
    <line x1="60" y1="211.1432538764175" x2="770" y2="211.1432538764175" class="chart-grid" stroke-opacity="0.3" />
    <text x="52" y="215.1432538764175" text-anchor="end" class="chart-muted" font-size="11" font-family="-apple-system, BlinkMacSystemFont, 'Segoe UI', Helvetica, Arial, sans-serif">4K</text>
    <line x1="60" y1="141.71488081462624" x2="770" y2="141.71488081462624" class="chart-grid" stroke-opacity="0.3" />
    <text x="52" y="145.71488081462624" text-anchor="end" class="chart-muted" font-size="11" font-family="-apple-system, BlinkMacSystemFont, 'Segoe UI', Helvetica, Arial, sans-serif">6K</text>
    <line x1="60" y1="72.286507752835" x2="770" y2="72.286507752835" class="chart-grid" stroke-opacity="0.3" />
    <text x="52" y="76.286507752835" text-anchor="end" class="chart-muted" font-size="11" font-family="-apple-system, BlinkMacSystemFont, 'Segoe UI', Helvetica, Arial, sans-serif">8K</text>
  </g>
  <g class="milestones">
    
  </g>
  <g class="x-axis">
    <text x="60" y="370" text-anchor="middle" class="chart-muted" font-size="11" font-family="-apple-system, BlinkMacSystemFont, 'Segoe UI', Helvetica, Arial, sans-serif">Nov 15</text>
    <text x="133.44827586206895" y="370" text-anchor="middle" class="chart-muted" font-size="11" font-family="-apple-system, BlinkMacSystemFont, 'Segoe UI', Helvetica, Arial, sans-serif">Dec 12</text>
    <text x="206.89655172413794" y="370" text-anchor="middle" class="chart-muted" font-size="11" font-family="-apple-system, BlinkMacSystemFont, 'Segoe UI', Helvetica, Arial, sans-serif">Jan 8</text>
    <text x="280.34482758620686" y="370" text-anchor="middle" class="chart-muted" font-size="11" font-family="-apple-system, BlinkMacSystemFont, 'Segoe UI', Helvetica, Arial, sans-serif">Feb 4</text>
    <text x="353.7931034482759" y="370" text-anchor="middle" class="chart-muted" font-size="11" font-family="-apple-system, BlinkMacSystemFont, 'Segoe UI', Helvetica, Arial, sans-serif">Mar 3</text>
    <text x="427.2413793103448" y="370" text-anchor="middle" class="chart-muted" font-size="11" font-family="-apple-system, BlinkMacSystemFont, 'Segoe UI', Helvetica, Arial, sans-serif">Mar 29</text>
    <text x="500.6896551724138" y="370" text-anchor="middle" class="chart-muted" font-size="11" font-family="-apple-system, BlinkMacSystemFont, 'Segoe UI', Helvetica, Arial, sans-serif">Apr 25</text>
    <text x="574.1379310344828" y="370" text-anchor="middle" class="chart-muted" font-size="11" font-family="-apple-system, BlinkMacSystemFont, 'Segoe UI', Helvetica, Arial, sans-serif">May 22</text>
    <text x="647.5862068965517" y="370" text-anchor="middle" class="chart-muted" font-size="11" font-family="-apple-system, BlinkMacSystemFont, 'Segoe UI', Helvetica, Arial, sans-serif">Jun 18</text>
    <text x="721.0344827586207" y="370" text-anchor="middle" class="chart-muted" font-size="11" font-family="-apple-system, BlinkMacSystemFont, 'Segoe UI', Helvetica, Arial, sans-serif">Jul 15</text>
    <text x="770" y="370" text-anchor="middle" class="chart-muted" font-size="11" font-family="-apple-system, BlinkMacSystemFont, 'Segoe UI', Helvetica, Arial, sans-serif">Aug 2</text>
  </g>
  <line x1="60" y1="50" x2="60" y2="350" class="chart-axis" stroke-width="1" />
  <line x1="60" y1="350" x2="770" y2="350" class="chart-axis" stroke-width="1" />
  
  <path d="M60,349.9652858134691 C68.16091954022988,349.4908585975469 76.32183908045977,348.9643601018283 84.48275862068965,348.5420041657024 C92.64367816091954,348.1196482295765 100.80459770114942,348.15436241610735 108.9655172413793,347.4311501967137 C117.12643678160919,346.70793797732006 125.28735632183907,345.20365656098124 133.44827586206895,344.2027308493404 C141.60919540229884,343.2018051376996 149.77011494252872,342.1950937283036 157.9310344827586,341.42559592686877 C166.0919540229885,340.6560981254339 174.2528735632184,340.2684563758389 182.41379310344828,339.5857440407313 C190.57471264367817,338.9030317056237 198.73563218390805,338.5906040268456 206.89655172413794,337.3293219162231 C215.05747126436782,336.06803980560056 223.2183908045977,333.6843323304791 231.3793103448276,332.0180513769961 C239.54022988505747,330.3517704235131 247.70114942528735,328.7838463318676 255.86206896551724,327.33163619532513 C264.0229885057471,325.87942605878266 272.183908045977,325.15621383938907 280.34482758620686,323.3047905577413 C288.50574712643675,321.4533672760935 296.6666666666667,318.6068039805601 304.82758620689657,316.22309650543855 C312.98850574712645,313.839389030317 321.14942528735634,311.36311039111314 329.3103448275862,309.00254570701225 C337.4712643678161,306.64198102291135 345.632183908046,304.76162925248786 353.7931034482759,302.05970840083313 C361.95402298850576,299.3577875491784 370.11494252873564,297.633649618144 378.2758620689655,292.791020597084 C386.4367816091954,287.94839157602405 394.5977011494253,280.0161999537144 402.7586206896552,273.0039342744735 C410.91954022988506,265.9916685952326 419.08045977011494,257.5734783614904 427.2413793103448,250.71742652163852 C435.4022988505747,243.86137468178663 443.5632183908046,237.24832214765104 451.7241379310345,231.8676232353622 C459.88505747126436,226.48692432307337 468.04597701149424,222.41957880120344 476.2068965517241,218.4332330479056 C484.367816091954,214.44688729460773 492.5287356321839,211.45568155519555 500.6896551724138,207.9495487155751 C508.85057471264366,204.44341587595463 517.0114942528736,200.85049757000692 525.1724137931035,197.3964360101828 C533.3333333333334,193.9423744503587 541.4942528735633,194.81022911363112 549.6551724137931,187.22517935663043 C557.816091954023,179.64012959962974 565.9770114942529,159.48854431844478 574.1379310344828,151.88613746817865 C582.2988505747127,144.2837306179125 590.4597701149426,145.44087016894235 598.6206896551724,141.61073825503354 C606.7816091954023,137.78060634112472 614.9425287356322,134.42490164313818 623.1034482758621,128.90534598472578 C631.264367816092,123.38579032631338 639.4252873563219,113.15667669520946 647.5862068965517,108.49340430455914 C655.7471264367816,103.83013191390882 663.9080459770115,103.32099051145569 672.0689655172414,100.92571164082389 C680.2298850574713,98.53043277019209 688.3908045977012,96.25665355241841 696.551724137931,94.12173108076834 C704.7126436781609,91.98680860911827 712.8735632183908,90.03702846563299 721.0344827586207,88.11617681092343 C729.1954022988506,86.19532515621388 737.3563218390805,84.40175885211761 745.5172413793103,82.59662115251103 C753.6781609195402,80.79148345290446 761.8390804597701,79.05577412635967 770,77.28535061328398" fill="none" stroke="#dfb317" stroke-width="2.5" class="data-line-0" />
  <g class="points">
    
    <circle cx="60" cy="349.9652858134691" r="4" fill="#dfb317" class="data-point" style="animation-delay: 1.50s" />
    <circle cx="84.48275862068965" cy="348.5420041657024" r="4" fill="#dfb317" class="data-point" style="animation-delay: 1.55s" />
    <circle cx="108.9655172413793" cy="347.4311501967137" r="4" fill="#dfb317" class="data-point" style="animation-delay: 1.60s" />
    <circle cx="133.44827586206895" cy="344.2027308493404" r="4" fill="#dfb317" class="data-point" style="animation-delay: 1.65s" />
    <circle cx="157.9310344827586" cy="341.42559592686877" r="4" fill="#dfb317" class="data-point" style="animation-delay: 1.70s" />
    <circle cx="182.41379310344828" cy="339.5857440407313" r="4" fill="#dfb317" class="data-point" style="animation-delay: 1.75s" />
    <circle cx="206.89655172413794" cy="337.3293219162231" r="4" fill="#dfb317" class="data-point" style="animation-delay: 1.80s" />
    <circle cx="231.3793103448276" cy="332.0180513769961" r="4" fill="#dfb317" class="data-point" style="animation-delay: 1.85s" />
    <circle cx="255.86206896551724" cy="327.33163619532513" r="4" fill="#dfb317" class="data-point" style="animation-delay: 1.90s" />
    <circle cx="280.34482758620686" cy="323.3047905577413" r="4" fill="#dfb317" class="data-point" style="animation-delay: 1.95s" />
    <circle cx="304.82758620689657" cy="316.22309650543855" r="4" fill="#dfb317" class="data-point" style="animation-delay: 2.00s" />
    <circle cx="329.3103448275862" cy="309.00254570701225" r="4" fill="#dfb317" class="data-point" style="animation-delay: 2.05s" />
    <circle cx="353.7931034482759" cy="302.05970840083313" r="4" fill="#dfb317" class="data-point" style="animation-delay: 2.10s" />
    <circle cx="378.2758620689655" cy="292.791020597084" r="4" fill="#dfb317" class="data-point" style="animation-delay: 2.15s" />
    <circle cx="402.7586206896552" cy="273.0039342744735" r="4" fill="#dfb317" class="data-point" style="animation-delay: 2.20s" />
    <circle cx="427.2413793103448" cy="250.71742652163852" r="4" fill="#dfb317" class="data-point" style="animation-delay: 2.25s" />
    <circle cx="451.7241379310345" cy="231.8676232353622" r="4" fill="#dfb317" class="data-point" style="animation-delay: 2.30s" />
    <circle cx="476.2068965517241" cy="218.4332330479056" r="4" fill="#dfb317" class="data-point" style="animation-delay: 2.35s" />
    <circle cx="500.6896551724138" cy="207.9495487155751" r="4" fill="#dfb317" class="data-point" style="animation-delay: 2.40s" />
    <circle cx="525.1724137931035" cy="197.3964360101828" r="4" fill="#dfb317" class="data-point" style="animation-delay: 2.45s" />
    <circle cx="549.6551724137931" cy="187.22517935663043" r="4" fill="#dfb317" class="data-point" style="animation-delay: 2.50s" />
    <circle cx="574.1379310344828" cy="151.88613746817865" r="4" fill="#dfb317" class="data-point" style="animation-delay: 2.55s" />
    <circle cx="598.6206896551724" cy="141.61073825503354" r="4" fill="#dfb317" class="data-point" style="animation-delay: 2.60s" />
    <circle cx="623.1034482758621" cy="128.90534598472578" r="4" fill="#dfb317" class="data-point" style="animation-delay: 2.65s" />
    <circle cx="647.5862068965517" cy="108.49340430455914" r="4" fill="#dfb317" class="data-point" style="animation-delay: 2.70s" />
    <circle cx="672.0689655172414" cy="100.92571164082389" r="4" fill="#dfb317" class="data-point" style="animation-delay: 2.75s" />
    <circle cx="696.551724137931" cy="94.12173108076834" r="4" fill="#dfb317" class="data-point" style="animation-delay: 2.80s" />
    <circle cx="721.0344827586207" cy="88.11617681092343" r="4" fill="#dfb317" class="data-point" style="animation-delay: 2.85s" />
    <circle cx="745.5172413793103" cy="82.59662115251103" r="4" fill="#dfb317" class="data-point" style="animation-delay: 2.90s" />
    <circle cx="770" cy="77.28535061328398" r="4" fill="#dfb317" class="data-point" style="animation-delay: 2.95s" />
  </g>
</svg>