<svg xmlns="http://www.w3.org/2000/svg" viewBox="0 0 800 400" width="800" height="400">
  <style>
    @keyframes drawLine {
      to { stroke-dashoffset: 0; }
    }
    @keyframes fadeInPoint {
      from { opacity: 0; }
      to { opacity: 1; }
    }
    .data-line-0 {
      stroke-dasharray: 1036;
      stroke-dashoffset: 1036;
      animation: drawLine 2s ease-out forwards;
    }
    .data-point {
      opacity: 0;
      animation: fadeInPoint 0.5s ease-out forwards;
    }
    .chart-bg { fill: #fff; }
    .chart-text { fill: #24292e; }
    .chart-muted { fill: #6a737d; }
    .chart-grid { stroke: #eee; }
    .chart-axis { stroke: #6a737d; }
    @media (prefers-color-scheme: dark) {
      .chart-bg { fill: #0d1117; }
      .chart-text { fill: #e6edf3; }
      .chart-muted { fill: #8b949e; }
      .chart-grid { stroke: #21262d; }
      .chart-axis { stroke: #8b949e; }
    }
  </style>
  <rect width="800" height="400" class="chart-bg" />
  <text x="400" y="14" text-anchor="middle" class="chart-text" font-size="16" font-weight="bold" font-family="-apple-system, BlinkMacSystemFont, 'Segoe UI', Helvetica, Arial, sans-serif">Growth Forecast</text>
  <g class="legend">
    <rect x="220" y="31" width="12" height="3" fill="#dfb317" />
    <line x1="220" y1="32.5" x2="232" y2="32.5" stroke="#dfb317" stroke-width="2" />
    <text x="236" y="36" class="chart-text" font-size="10" font-family="-apple-system, BlinkMacSystemFont, 'Segoe UI', Helvetica, Arial, sans-serif">Star History</text>
    <rect x="340" y="31" width="12" height="3" fill="#28a745" rx="1" />
    <line x1="340" y1="32.5" x2="352" y2="32.5" stroke="#28a745" stroke-width="2" stroke-dasharray="4,2" />
    <text x="356" y="36" class="chart-text" font-size="10" font-family="-apple-system, BlinkMacSystemFont, 'Segoe UI', Helvetica, Arial, sans-serif">Linear Regression</text>
    <rect x="460" y="31" width="12" height="3" fill="#d73a49" rx="1" />
    <line x1="460" y1="32.5" x2="472" y2="32.5" stroke="#d73a49" stroke-width="2" stroke-dasharray="4,2" />
    <text x="476" y="36" class="chart-text" font-size="10" font-family="-apple-system, BlinkMacSystemFont, 'Segoe UI', Helvetica, Arial, sans-serif">Weighted Moving Average</text>
  </g>
  <g class="grid">
    <line x1="60" y1="350" x2="770" y2="350" class="chart-grid" stroke-opacity="0.3" />
    <text x="52" y="354" text-anchor="end" class="chart-muted" font-size="11" font-family="-apple-system, BlinkMacSystemFont, 'Segoe UI', Helvetica, Arial, sans-serif">0</text>
    <line x1="60" y1="291.74191669094085" x2="770" y2="291.74191669094085" class="chart-grid" stroke-opacity="0.3" />
    <text x="52" y="295.74191669094085" text-anchor="end" class="chart-muted" font-size="11" font-family="-apple-system, BlinkMacSystemFont, 'Segoe UI', Helvetica, Arial, sans-serif">2K</text>
    <line x1="60" y1="233.48383338188174" x2="770" y2="233.48383338188174" class="chart-grid" stroke-opacity="0.3" />
    <text x="52" y="237.48383338188174" text-anchor="end" class="chart-muted" font-size="11" font-family="-apple-system, BlinkMacSystemFont, 'Segoe UI', Helvetica, Arial, sans-serif">4K</text>
    <line x1="60" y1="175.22575007282262" x2="770" y2="175.22575007282262" class="chart-grid" stroke-opacity="0.3" />
    <text x="52" y="179.22575007282262" text-anchor="end" class="chart-muted" font-size="11" font-family="-apple-system, BlinkMacSystemFont, 'Segoe UI', Helvetica, Arial, sans-serif">6K</text>
    <line x1="60" y1="116.96766676376348" x2="770" y2="116.96766676376348" class="chart-grid" stroke-opacity="0.3" />
    <text x="52" y="120.96766676376348" text-anchor="end" class="chart-muted" font-size="11" font-family="-apple-system, BlinkMacSystemFont, 'Segoe UI', Helvetica, Arial, sans-serif">8K</text>
    <line x1="60" y1="58.70958345470433" x2="770" y2="58.70958345470433" class="chart-grid" stroke-opacity="0.3" />
    <text x="52" y="62.70958345470433" text-anchor="end" class="chart-muted" font-size="11" font-family="-apple-system, BlinkMacSystemFont, 'Segoe UI', Helvetica, Arial, sans-serif">10K</text>
  </g>
  <g class="milestones">
    
  </g>
  <g class="x-axis">
    <text x="60" y="370" text-anchor="middle" class="chart-muted" font-size="11" font-family="-apple-system, BlinkMacSystemFont, 'Segoe UI', Helvetica, Arial, sans-serif">Nov 15</text>
    <text x="146.06060606060606" y="370" text-anchor="middle" class="chart-muted" font-size="11" font-family="-apple-system, BlinkMacSystemFont, 'Segoe UI', Helvetica, Arial, sans-serif">Dec 26</text>
    <text x="232.12121212121212" y="370" text-anchor="middle" class="chart-muted" font-size="11" font-family="-apple-system, BlinkMacSystemFont, 'Segoe UI', Helvetica, Arial, sans-serif">Feb 4</text>
    <text x="318.1818181818182" y="370" text-anchor="middle" class="chart-muted" font-size="11" font-family="-apple-system, BlinkMacSystemFont, 'Segoe UI', Helvetica, Arial, sans-serif">Mar 16</text>
    <text x="404.24242424242425" y="370" text-anchor="middle" class="chart-muted" font-size="11" font-family="-apple-system, BlinkMacSystemFont, 'Segoe UI', Helvetica, Arial, sans-serif">Apr 26</text>
    <text x="490.3030303030303" y="370" text-anchor="middle" class="chart-muted" font-size="11" font-family="-apple-system, BlinkMacSystemFont, 'Segoe UI', Helvetica, Arial, sans-serif">Jun 5</text>
    <text x="576.3636363636364" y="370" text-anchor="middle" class="chart-muted" font-size="11" font-family="-apple-system, BlinkMacSystemFont, 'Segoe UI', Helvetica, Arial, sans-serif">Jul 15</text>
    <text x="662.4242424242425" y="370" text-anchor="middle" class="chart-muted" font-size="11" font-family="-apple-system, BlinkMacSystemFont, 'Segoe UI', Helvetica, Arial, sans-serif">Aug 25</text>
    <text x="748.4848484848485" y="370" text-anchor="middle" class="chart-muted" font-size="11" font-family="-apple-system, BlinkMacSystemFont, 'Segoe UI', Helvetica, Arial, sans-serif">Week 3</text>
    <text x="770" y="370" text-anchor="middle" class="chart-muted" font-size="11" font-family="-apple-system, BlinkMacSystemFont, 'Segoe UI', Helvetica, Arial, sans-serif">Week 4</text>
  </g>
  <line x1="60" y1="50" x2="60" y2="350" class="chart-axis" stroke-width="1" />
  <line x1="60" y1="350" x2="770" y2="350" class="chart-axis" stroke-width="1" />
  <path d="M60,350 L60,349.9708709583455 C67.17171717171718,349.5630643751821 74.34343434343434,349.1795319933974 81.51515151515152,348.74745120885524 C88.68686868686869,348.3153704243131 95.85858585858585,348.1600155354889 103.03030303030303,347.37838625109237 C110.20202020202021,346.5967569666958 117.37373737373737,344.9655306340421 124.54545454545455,344.05767550247594 C131.7171717171717,343.14982037090977 138.88888888888889,342.59636857947373 146.06060606060606,341.9312554616953 C153.23232323232324,341.2661423439169 160.4040404040404,341.086513253714 167.57575757575756,340.06699679580544 C174.74747474747474,339.0474803378969 181.91919191919192,337.2269152344888 189.0909090909091,335.8141567142441 C196.26262626262627,334.40139819399946 203.43434343434345,332.99834935430624 210.60606060606062,331.59044567433733 C217.7777777777778,330.1825419943684 224.94949494949495,329.12418681425385 232.12121212121212,327.36673463443054 C239.2929292929293,325.60928245460724 246.46464646464645,323.2255558792116 253.63636363636363,321.0457325953976 C260.8080808080808,318.86590931158366 267.979797979798,316.5307311389455 275.1515151515151,314.2877949315467 C282.3232323232323,312.04485872414796 289.4949494949495,310.95737450237885 296.66666666666663,307.58811535100494 C303.83838383838383,304.21885619963103 311.010101010101,299.90290319448496 318.1818181818182,294.07224002330327 C325.35353535353534,288.2415768521216 332.52525252525254,279.1581706961841 339.6969696969697,272.60413632391493 C346.8686868686869,266.0501019516458 354.04040404040404,260.01553548888245 361.21212121212125,254.74803378968832 C368.3838383838384,249.48053209049425 375.55555555555554,244.86357898825128 382.7272727272727,240.99912612875036 C389.8989898989899,237.13467326924942 397.07070707070704,234.88688222157492 404.24242424242425,231.5613166326828 C411.4141414141414,228.23575104379069 418.5858585858586,224.24992717739585 425.75757575757575,221.0457325953976 C432.9292929292929,217.84153801339934 440.1010101010101,218.96786095737448 447.27272727272725,212.33614914069327 C454.44444444444446,205.70443732401202 461.6161616161616,188.28041557432758 468.7878787878788,181.2554616953102 C475.95959595959596,174.23050781629283 483.13131313131316,175.2257500728226 490.3030303030303,170.186425866589 C497.47474747474746,165.1471016603554 504.64646464646466,155.39858238663948 511.8181818181818,151.01951645790854 C518.989898989899,146.6404505291776 526.1616161616162,146.18895038353236 533.3333333333333,143.9120302942033 C540.5050505050505,141.63511020487422 547.6767676767677,139.3678997960967 554.8484848484849,137.35799592193416 C562.0202020202021,135.34809204777164 569.1919191919192,133.6149140693271 576.3636363636364,131.85260704922808 C583.5353535353536,130.09030002912905 590.7070707070707,128.47363821730264 597.8787878787879,126.78415380133993 C605.0505050505051,125.0946693853772 612.2222222222222,123.68676570540826 619.3939393939394,121.71570055345177 C626.5656565656566,119.74463540149527 633.7373737373738,116.90455384017869 640.909090909091,114.95776288960096 C648.0808080808082,113.01097193902324 655.2525252525253,111.6321973007088 662.4242424242425,110.03495484998541 C669.5959595959596,108.43771239926204 676.7676767676768,106.92785707350227 683.9393939393939,105.3743081852607 L683.9393939393939,350 L60,350 Z" fill="#dfb317" fill-opacity="0.1" />
  
  
  <path d="M60,350 L60,349.9708709583455 C67.17171717171718,349.5630643751821 74.34343434343434,349.1795319933974 81.51515151515152,348.74745120885524 C88.68686868686869,348.3153704243131 95.85858585858585,348.1600155354889 103.03030303030303,347.37838625109237 C110.20202020202021,346.5967569666958 117.37373737373737,344.9655306340421 124.54545454545455,344.05767550247594 C131.7171717171717,343.14982037090977 138.88888888888889,342.59636857947373 146.06060606060606,341.9312554616953 C153.23232323232324,341.2661423439169 160.4040404040404,341.086513253714 167.57575757575756,340.06699679580544 C174.74747474747474,339.0474803378969 181.91919191919192,337.2269152344888 189.0909090909091,335.8141567142441 C196.26262626262627,334.40139819399946 203.43434343434345,332.99834935430624 210.60606060606062,331.59044567433733 C217.7777777777778,330.1825419943684 224.94949494949495,329.12418681425385 232.12121212121212,327.36673463443054 C239.2929292929293,325.60928245460724 246.46464646464645,323.2255558792116 253.63636363636363,321.0457325953976 C260.8080808080808,318.86590931158366 267.979797979798,316.5307311389455 275.1515151515151,314.2877949315467 C282.3232323232323,312.04485872414796 289.4949494949495,310.95737450237885 296.66666666666663,307.58811535100494 C303.83838383838383,304.21885619963103 311.010101010101,299.90290319448496 318.1818181818182,294.07224002330327 C325.35353535353534,288.2415768521216 332.52525252525254,279.1581706961841 339.6969696969697,272.60413632391493 C346.8686868686869,266.0501019516458 354.04040404040404,260.01553548888245 361.21212121212125,254.74803378968832 C368.3838383838384,249.48053209049425 375.55555555555554,244.86357898825128 382.7272727272727,240.99912612875036 C389.8989898989899,237.13467326924942 397.07070707070704,234.88688222157492 404.24242424242425,231.5613166326828 C411.4141414141414,228.23575104379069 418.5858585858586,224.24992717739585 425.75757575757575,221.0457325953976 C432.9292929292929,217.84153801339934 440.1010101010101,218.96786095737448 447.27272727272725,212.33614914069327 C454.44444444444446,205.70443732401202 461.6161616161616,188.28041557432758 468.7878787878788,181.2554616953102 C475.95959595959596,174.23050781629283 483.13131313131316,175.2257500728226 490.3030303030303,170.186425866589 C497.47474747474746,165.1471016603554 504.64646464646466,155.39858238663948 511.8181818181818,151.01951645790854 C518.989898989899,146.6404505291776 526.1616161616162,146.18895038353236 533.3333333333333,143.9120302942033 C540.5050505050505,141.63511020487422 547.6767676767677,139.3678997960967 554.8484848484849,137.35799592193416 C562.0202020202021,135.34809204777164 569.1919191919192,133.6149140693271 576.3636363636364,131.85260704922808 C583.5353535353536,130.09030002912905 590.7070707070707,128.47363821730264 597.8787878787879,126.78415380133993 C605.0505050505051,125.0946693853772 612.2222222222222,123.68676570540826 619.3939393939394,121.71570055345177 C626.5656565656566,119.74463540149527 633.7373737373738,116.90455384017869 640.909090909091,114.95776288960096 C648.0808080808082,113.01097193902324 655.2525252525253,111.6321973007088 662.4242424242425,110.03495484998541 C669.5959595959596,108.43771239926204 676.7676767676768,106.92785707350227 683.9393939393939,105.3743081852607" fill="none" stroke="#dfb317" stroke-width="2.5" class="data-line-0" />
  <path d="M683.9393939393939,105.3743081852607 C691.1111111111111,103.03427517234682 698.2828282828282,100.69424215943292 705.4545454545454,98.35420914651905 C712.6262626262626,96.01417613360518 719.7979797979798,93.67414312069134 726.969696969697,91.33411010777746 C734.1414141414142,88.9940770948636 741.3131313131313,86.65404408194969 748.4848484848485,84.31401106903581 C755.6565656565657,81.97397805612194 762.8282828282828,79.63394504320809 770,77.29391203029422" fill="none" stroke="#28a745" stroke-width="2.5" stroke-dasharray="8,4" />
  <path d="M683.9393939393939,105.3743081852607 C691.1111111111111,103.209049422274 698.2828282828282,101.04379065928731 705.4545454545454,98.87853189630061 C712.6262626262626,96.71327313331392 719.7979797979798,94.54801437032722 726.969696969697,92.38275560734053 C734.1414141414142,90.21749684435383 741.3131313131313,88.05223808136714 748.4848484848485,85.88697931838044 C755.6565656565657,83.72172055539374 762.8282828282828,81.55646179240705 770,79.39120302942035" fill="none" stroke="#d73a49" stroke-width="2.5" stroke-dasharray="8,4" />
  <g class="points">
    
    <circle cx="60" cy="349.9708709583455" r="4" fill="#dfb317" class="data-point" style="animation-delay: 1.50s" />
    <circle cx="81.51515151515152" cy="348.74745120885524" r="4" fill="#dfb317" class="data-point" style="animation-delay: 1.55s" />
    <circle cx="103.03030303030303" cy="347.37838625109237" r="4" fill="#dfb317" class="data-point" style="animation-delay: 1.60s" />
    <circle cx="124.54545454545455" cy="344.05767550247594" r="4" fill="#dfb317" class="data-point" style="animation-delay: 1.65s" />
    <circle cx="146.06060606060606" cy="341.9312554616953" r="4" fill="#dfb317" class="data-point" style="animation-delay: 1.70s" />
    <circle cx="167.57575757575756" cy="340.06699679580544" r="4" fill="#dfb317" class="data-point" style="animation-delay: 1.75s" />
    <circle cx="189.0909090909091" cy="335.8141567142441" r="4" fill="#dfb317" class="data-point" style="animation-delay: 1.80s" />
    <circle cx="210.60606060606062" cy="331.59044567433733" r="4" fill="#dfb317" class="data-point" style="animation-delay: 1.85s" />
    <circle cx="232.12121212121212" cy="327.36673463443054" r="4" fill="#dfb317" class="data-point" style="animation-delay: 1.90s" />
    <circle cx="253.63636363636363" cy="321.0457325953976" r="4" fill="#dfb317" class="data-point" style="animation-delay: 1.95s" />
    <circle cx="275.1515151515151" cy="314.2877949315467" r="4" fill="#dfb317" class="data-point" style="animation-delay: 2.00s" />
    <circle cx="296.66666666666663" cy="307.58811535100494" r="4" fill="#dfb317" class="data-point" style="animation-delay: 2.05s" />
    <circle cx="318.1818181818182" cy="294.07224002330327" r="4" fill="#dfb317" class="data-point" style="animation-delay: 2.10s" />
    <circle cx="339.6969696969697" cy="272.60413632391493" r="4" fill="#dfb317" class="data-point" style="animation-delay: 2.15s" />
    <circle cx="361.21212121212125" cy="254.74803378968832" r="4" fill="#dfb317" class="data-point" style="animation-delay: 2.20s" />
    <circle cx="382.7272727272727" cy="240.99912612875036" r="4" fill="#dfb317" class="data-point" style="animation-delay: 2.25s" />
    <circle cx="404.24242424242425" cy="231.5613166326828" r="4" fill="#dfb317" class="data-point" style="animation-delay: 2.30s" />
    <circle cx="425.75757575757575" cy="221.0457325953976" r="4" fill="#dfb317" class="data-point" style="animation-delay: 2.35s" />
    <circle cx="447.27272727272725" cy="212.33614914069327" r="4" fill="#dfb317" class="data-point" style="animation-delay: 2.40s" />
    <circle cx="468.7878787878788" cy="181.2554616953102" r="4" fill="#dfb317" class="data-point" style="animation-delay: 2.45s" />
    <circle cx="490.3030303030303" cy="170.186425866589" r="4" fill="#dfb317" class="data-point" style="animation-delay: 2.50s" />
    <circle cx="511.8181818181818" cy="151.01951645790854" r="4" fill="#dfb317" class="data-point" style="animation-delay: 2.55s" />
    <circle cx="533.3333333333333" cy="143.9120302942033" r="4" fill="#dfb317" class="data-point" style="animation-delay: 2.60s" />
    <circle cx="554.8484848484849" cy="137.35799592193416" r="4" fill="#dfb317" class="data-point" style="animation-delay: 2.65s" />
    <circle cx="576.3636363636364" cy="131.85260704922808" r="4" fill="#dfb317" class="data-point" style="animation-delay: 2.70s" />
    <circle cx="597.8787878787879" cy="126.78415380133993" r="4" fill="#dfb317" class="data-point" style="animation-delay: 2.75s" />
    <circle cx="619.3939393939394" cy="121.71570055345177" r="4" fill="#dfb317" class="data-point" style="animation-delay: 2.80s" />
    <circle cx="640.909090909091" cy="114.95776288960096" r="4" fill="#dfb317" class="data-point" style="animation-delay: 2.85s" />
    <circle cx="662.4242424242425" cy="110.03495484998541" r="4" fill="#dfb317" class="data-point" style="animation-delay: 2.90s" />
    <circle cx="683.9393939393939" cy="105.3743081852607" r="4" fill="#dfb317" class="data-point" style="animation-delay: 2.95s" />
  </g>
</svg>