<svg xmlns="http://www.w3.org/2000/svg" viewBox="0 0 800 400" width="800" height="400">
  <style>
    @keyframes drawLine {
      to { stroke-dashoffset: 0; }
    }
    @keyframes fadeInPoint {
      from { opacity: 0; }
      to { opacity: 1; }
    }
    .data-line-0 {
      stroke-dasharray: 1035;
      stroke-dashoffset: 1035;
      animation: drawLine 2s ease-out forwards;
    }
    .data-point {
      opacity: 0;
      animation: fadeInPoint 0.5s ease-out forwards;
    }
    .chart-bg { fill: #fff; }
    .chart-text { fill: #24292e; }
    .chart-muted { fill: #6a737d; }
    .chart-grid { stroke: #eee; }
    .chart-axis { stroke: #6a737d; }
    @media (prefers-color-scheme: dark) {
      .chart-bg { fill: #0d1117; }
      .chart-text { fill: #e6edf3; }
      .chart-muted { fill: #8b949e; }
      .chart-grid { stroke: #21262d; }
      .chart-axis { stroke: #8b949e; }
    }
  </style>
  <rect width="800" height="400" class="chart-bg" />
  <text x="400" y="14" text-anchor="middle" class="chart-text" font-size="16" font-weight="bold" font-family="-apple-system, BlinkMacSystemFont, 'Segoe UI', Helvetica, Arial, sans-serif">Growth Forecast</text>
  <g class="legend">
    <rect x="220" y="31" width="12" height="3" fill="#dfb317" />
    <line x1="220" y1="32.5" x2="232" y2="32.5" stroke="#dfb317" stroke-width="2" />
    <text x="236" y="36" class="chart-text" font-size="10" font-family="-apple-system, BlinkMacSystemFont, 'Segoe UI', Helvetica, Arial, sans-serif">Star History</text>
    <rect x="340" y="31" width="12" height="3" fill="#28a745" rx="1" />
    <line x1="340" y1="32.5" x2="352" y2="32.5" stroke="#28a745" stroke-width="2" stroke-dasharray="4,2" />
    <text x="356" y="36" class="chart-text" font-size="10" font-family="-apple-system, BlinkMacSystemFont, 'Segoe UI', Helvetica, Arial, sans-serif">Linear Regression</text>
    <rect x="460" y="31" width="12" height="3" fill="#d73a49" rx="1" />
    <line x1="460" y1="32.5" x2="472" y2="32.5" stroke="#d73a49" stroke-width="2" stroke-dasharray="4,2" />
    <text x="476" y="36" class="chart-text" font-size="10" font-family="-apple-system, BlinkMacSystemFont, 'Segoe UI', Helvetica, Arial, sans-serif">Weighted Moving Average</text>
  </g>
  <g class="grid">
    <line x1="60" y1="350" x2="770" y2="350" class="chart-grid" stroke-opacity="0.3" />
    <text x="52" y="354" text-anchor="end" class="chart-muted" font-size="11" font-family="-apple-system, BlinkMacSystemFont, 'Segoe UI', Helvetica, Arial, sans-serif">0</text>
    <line x1="60" y1="290.0778987316489" x2="770" y2="290.0778987316489" class="chart-grid" stroke-opacity="0.3" />
    <text x="52" y="294.0778987316489" text-anchor="end" class="chart-muted" font-size="11" font-family="-apple-system, BlinkMacSystemFont, 'Segoe UI', Helvetica, Arial, sans-serif">2K</text>
    <line x1="60" y1="230.1557974632977" x2="770" y2="230.1557974632977" class="chart-grid" stroke-opacity="0.3" />
    <text x="52" y="234.1557974632977" text-anchor="end" class="chart-muted" font-size="11" font-family="-apple-system, BlinkMacSystemFont, 'Segoe UI', Helvetica, Arial, sans-serif">4K</text>
    <line x1="60" y1="170.23369619494656" x2="770" y2="170.23369619494656" class="chart-grid" stroke-opacity="0.3" />
    <text x="52" y="174.23369619494656" text-anchor="end" class="chart-muted" font-size="11" font-family="-apple-system, BlinkMacSystemFont, 'Segoe UI', Helvetica, Arial, sans-serif">6K</text>
    <line x1="60" y1="110.3115949265954" x2="770" y2="110.3115949265954" class="chart-grid" stroke-opacity="0.3" />
    <text x="52" y="114.3115949265954" text-anchor="end" class="chart-muted" font-size="11" font-family="-apple-system, BlinkMacSystemFont, 'Segoe UI', Helvetica, Arial, sans-serif">8K</text>
    <line x1="60" y1="50.38949365824425" x2="770" y2="50.38949365824425" class="chart-grid" stroke-opacity="0.3" />
    <text x="52" y="54.38949365824425" text-anchor="end" class="chart-muted" font-size="11" font-family="-apple-system, BlinkMacSystemFont, 'Segoe UI', Helvetica, Arial, sans-serif">10K</text>
  </g>
  <g class="milestones">
    
  </g>
  <g class="x-axis">
    <text x="60" y="370" text-anchor="middle" class="chart-muted" font-size="11" font-family="-apple-system, BlinkMacSystemFont, 'Segoe UI', Helvetica, Arial, sans-serif">Nov 15</text>
    <text x="146.06060606060606" y="370" text-anchor="middle" class="chart-muted" font-size="11" font-family="-apple-system, BlinkMacSystemFont, 'Segoe UI', Helvetica, Arial, sans-serif">Dec 23</text>
    <text x="232.12121212121212" y="370" text-anchor="middle" class="chart-muted" font-size="11" font-family="-apple-system, BlinkMacSystemFont, 'Segoe UI', Helvetica, Arial, sans-serif">Jan 29</text>
    <text x="318.1818181818182" y="370" text-anchor="middle" class="chart-muted" font-size="11" font-family="-apple-system, BlinkMacSystemFont, 'Segoe UI', Helvetica, Arial, sans-serif">Mar 8</text>
    <text x="404.24242424242425" y="370" text-anchor="middle" class="chart-muted" font-size="11" font-family="-apple-system, BlinkMacSystemFont, 'Segoe UI', Helvetica, Arial, sans-serif">Apr 14</text>
    <text x="490.3030303030303" y="370" text-anchor="middle" class="chart-muted" font-size="11" font-family="-apple-system, BlinkMacSystemFont, 'Segoe UI', Helvetica, Arial, sans-serif">May 22</text>
    <text x="576.3636363636364" y="370" text-anchor="middle" class="chart-muted" font-size="11" font-family="-apple-system, BlinkMacSystemFont, 'Segoe UI', Helvetica, Arial, sans-serif">Jun 29</text>
    <text x="662.4242424242425" y="370" text-anchor="middle" class="chart-muted" font-size="11" font-family="-apple-system, BlinkMacSystemFont, 'Segoe UI', Helvetica, Arial, sans-serif">Aug 5</text>
    <text x="748.4848484848485" y="370" text-anchor="middle" class="chart-muted" font-size="11" font-family="-apple-system, BlinkMacSystemFont, 'Segoe UI', Helvetica, Arial, sans-serif">Week 3</text>
    <text x="770" y="370" text-anchor="middle" class="chart-muted" font-size="11" font-family="-apple-system, BlinkMacSystemFont, 'Segoe UI', Helvetica, Arial, sans-serif">Week 4</text>
  </g>
  <line x1="60" y1="50" x2="60" y2="350" class="chart-axis" stroke-width="1" />
  <line x1="60" y1="350" x2="770" y2="350" class="chart-axis" stroke-width="1" />
  <path d="M60,350 L60,349.9700389493658 C67.17171717171718,349.5605712573654 74.34343434343434,349.13112953160885 81.51515151515152,348.7416358733646 C88.68686868686869,348.35214221512035 95.85858585858585,348.33216818136424 103.03030303030303,347.63307699990014 C110.20202020202021,346.93398581843604 117.37373737373737,345.4259462698492 124.54545454545455,344.54708878458007 C131.7171717171717,343.66823129931095 138.88888888888889,343.009088185359 146.06060606060606,342.35993208828523 C153.23232323232324,341.71077599121145 160.4040404040404,341.3112953160891 167.57575757575756,340.65215220213724 C174.74747474747474,339.9930090881854 181.91919191919192,339.66343753120947 189.0909090909091,338.40507340457407 C196.26262626262627,337.14670927793867 203.43434343434345,334.66992909218015 210.60606060606062,333.10196744232496 C217.7777777777778,331.53400579246977 224.94949494949495,330.375511834615 232.12121212121212,328.9973035054429 C239.2929292929293,327.61909517627083 246.46464646464645,326.63038050534306 253.63636363636363,324.8327174672925 C260.8080808080808,323.035054429242 267.979797979798,320.4284430240687 275.1515151515151,318.21132527713974 C282.3232323232323,315.99420753021076 289.4949494949495,313.7720962748427 296.66666666666663,311.53001098571855 C303.83838383838383,309.2879256965944 311.010101010101,308.47897732947166 318.1818181818182,304.7588135423949 C325.35353535353534,301.0386497553181 332.52525252525254,295.1363227803855 339.6969696969697,289.2090282632578 C346.8686868686869,283.28173374613004 354.04040404040404,275.32707480275644 361.21212121212125,269.19504643962847 C368.3838383838384,263.06301807650055 375.55555555555554,257.56516528512935 382.7272727272727,252.41685808449017 C389.8989898989899,247.268550883851 397.07070707070704,242.2001398182363 404.24242424242425,238.30520323579347 C411.4141414141414,234.41026665335065 418.5858585858586,232.078298212324 425.75757575757575,229.04723858983323 C432.9292929292929,226.01617896734246 440.1010101010101,223.21981424148606 447.27272727272725,220.1188455008489 C454.44444444444446,217.01787676021172 461.6161616161616,217.2176170977729 468.7878787878788,210.44142614601017 C475.95959595959596,203.66523519424746 483.13131313131316,186.19294916608408 490.3030303030303,179.46169979027263 C497.47474747474746,172.7304504144612 504.64646464646466,173.554379306901 511.8181818181818,170.0539298911415 C518.989898989899,166.553480475382 526.1616161616162,163.30769999001296 533.3333333333333,158.45900329571558 C540.5050505050505,153.61030660141816 547.6767676767677,145.00649156097074 554.8484848484849,140.96174972535704 C562.0202020202021,136.91700788974336 569.1919191919192,136.29281933486467 576.3636363636364,134.19055228203337 C583.5353535353536,132.08828522920206 590.7070707070707,130.2556676320783 597.8787878787879,128.34814740836913 C605.0505050505051,126.44062718465995 612.2222222222222,124.37830819934085 619.3939393939394,122.74543093977829 C626.5656565656566,121.11255368021571 633.7373737373738,120.15380005992209 640.909090909091,118.5508838509937 C648.0808080808082,116.94796764206531 655.2525252525253,115.09038250274644 662.4242424242425,113.12793368620794 C669.5959595959596,111.16548486966944 676.7676767676768,108.89343852991112 683.9393939393939,106.77619095176271 L683.9393939393939,350 L60,350 Z" fill="#dfb317" fill-opacity="0.1" />
  
  
  <path d="M60,350 L60,349.9700389493658 C67.17171717171718,349.5605712573654 74.34343434343434,349.13112953160885 81.51515151515152,348.7416358733646 C88.68686868686869,348.35214221512035 95.85858585858585,348.33216818136424 103.03030303030303,347.63307699990014 C110.20202020202021,346.93398581843604 117.37373737373737,345.4259462698492 124.54545454545455,344.54708878458007 C131.7171717171717,343.66823129931095 138.88888888888889,343.009088185359 146.06060606060606,342.35993208828523 C153.23232323232324,341.71077599121145 160.4040404040404,341.3112953160891 167.57575757575756,340.65215220213724 C174.74747474747474,339.9930090881854 181.91919191919192,339.66343753120947 189.0909090909091,338.40507340457407 C196.26262626262627,337.14670927793867 203.43434343434345,334.66992909218015 210.60606060606062,333.10196744232496 C217.7777777777778,331.53400579246977 224.94949494949495,330.375511834615 232.12121212121212,328.9973035054429 C239.2929292929293,327.61909517627083 246.46464646464645,326.63038050534306 253.63636363636363,324.8327174672925 C260.8080808080808,323.035054429242 267.979797979798,320.4284430240687 275.1515151515151,318.21132527713974 C282.3232323232323,315.99420753021076 289.4949494949495,313.7720962748427 296.66666666666663,311.53001098571855 C303.83838383838383,309.2879256965944 311.010101010101,308.47897732947166 318.1818181818182,304.7588135423949 C325.35353535353534,301.0386497553181 332.52525252525254,295.1363227803855 339.6969696969697,289.2090282632578 C346.8686868686869,283.28173374613004 354.04040404040404,275.32707480275644 361.21212121212125,269.19504643962847 C368.3838383838384,263.06301807650055 375.55555555555554,257.56516528512935 382.7272727272727,252.41685808449017 C389.8989898989899,247.268550883851 397.07070707070704,242.2001398182363 404.24242424242425,238.30520323579347 C411.4141414141414,234.41026665335065 418.5858585858586,232.078298212324 425.75757575757575,229.04723858983323 C432.9292929292929,226.01617896734246 440.1010101010101,223.21981424148606 447.27272727272725,220.1188455008489 C454.44444444444446,217.01787676021172 461.6161616161616,217.2176170977729 468.7878787878788,210.44142614601017 C475.95959595959596,203.66523519424746 483.13131313131316,186.19294916608408 490.3030303030303,179.46169979027263 C497.47474747474746,172.7304504144612 504.64646464646466,173.554379306901 511.8181818181818,170.0539298911415 C518.989898989899,166.553480475382 526.1616161616162,163.30769999001296 533.3333333333333,158.45900329571558 C540.5050505050505,153.61030660141816 547.6767676767677,145.00649156097074 554.8484848484849,140.96174972535704 C562.0202020202021,136.91700788974336 569.1919191919192,136.29281933486467 576.3636363636364,134.19055228203337 C583.5353535353536,132.08828522920206 590.7070707070707,130.2556676320783 597.8787878787879,128.34814740836913 C605.0505050505051,126.44062718465995 612.2222222222222,124.37830819934085 619.3939393939394,122.74543093977829 C626.5656565656566,121.11255368021571 633.7373737373738,120.15380005992209 640.909090909091,118.5508838509937 C648.0808080808082,116.94796764206531 655.2525252525253,115.09038250274644 662.4242424242425,113.12793368620794 C669.5959595959596,111.16548486966944 676.7676767676768,108.89343852991112 683.9393939393939,106.77619095176271" fill="none" stroke="#dfb317" stroke-width="2.5" class="data-line-0" />
  <path d="M683.9393939393939,106.77619095176271 C691.1111111111111,104.31938479976031 698.2828282828282,101.86257864775791 705.4545454545454,99.40577249575551 C712.6262626262626,96.94896634375311 719.7979797979798,94.49216019175071 726.969696969697,92.03535403974831 C734.1414141414142,89.57854788774593 741.3131313131313,87.12174173574356 748.4848484848485,84.66493558374117 C755.6565656565657,82.20812943173878 762.8282828282828,79.75132327973637 770,77.29451712773397" fill="none" stroke="#28a745" stroke-width="2.5" stroke-dasharray="8,4" />
  <path d="M683.9393939393939,106.77619095176271 C691.1111111111111,104.36931988415061 698.2828282828282,101.9624488165385 705.4545454545454,99.5555777489264 C712.6262626262626,97.14870668131428 719.7979797979798,94.7418356137022 726.969696969697,92.33496454609008 C734.1414141414142,89.92809347847798 741.3131313131313,87.51622890242683 748.4848484848485,85.11435134325376 C755.6565656565657,82.71247378408069 762.8282828282828,80.32058324178568 770,77.92369919105164" fill="none" stroke="#d73a49" stroke-width="2.5" stroke-dasharray="8,4" />
  <g class="points">
    
    <circle cx="60" cy="349.9700389493658" r="4" fill="#dfb317" class="data-point" style="animation-delay: 1.50s" />
    <circle cx="81.51515151515152" cy="348.7416358733646" r="4" fill="#dfb317" class="data-point" style="animation-delay: 1.55s" />
    <circle cx="103.03030303030303" cy="347.63307699990014" r="4" fill="#dfb317" class="data-point" style="animation-delay: 1.60s" />
    <circle cx="124.54545454545455" cy="344.54708878458007" r="4" fill="#dfb317" class="data-point" style="animation-delay: 1.65s" />
    <circle cx="146.06060606060606" cy="342.35993208828523" r="4" fill="#dfb317" class="data-point" style="animation-delay: 1.70s" />
    <circle cx="167.57575757575756" cy="340.65215220213724" r="4" fill="#dfb317" class="data-point" style="animation-delay: 1.75s" />
    <circle cx="189.0909090909091" cy="338.40507340457407" r="4" fill="#dfb317" class="data-point" style="animation-delay: 1.80s" />
    <circle cx="210.60606060606062" cy="333.10196744232496" r="4" fill="#dfb317" class="data-point" style="animation-delay: 1.85s" />
    <circle cx="232.12121212121212" cy="328.9973035054429" r="4" fill="#dfb317" class="data-point" style="animation-delay: 1.90s" />
    <circle cx="253.63636363636363" cy="324.8327174672925" r="4" fill="#dfb317" class="data-point" style="animation-delay: 1.95s" />
    <circle cx="275.1515151515151" cy="318.21132527713974" r="4" fill="#dfb317" class="data-point" style="animation-delay: 2.00s" />
    <circle cx="296.66666666666663" cy="311.53001098571855" r="4" fill="#dfb317" class="data-point" style="animation-delay: 2.05s" />
    <circle cx="318.1818181818182" cy="304.7588135423949" r="4" fill="#dfb317" class="data-point" style="animation-delay: 2.10s" />
    <circle cx="339.6969696969697" cy="289.2090282632578" r="4" fill="#dfb317" class="data-point" style="animation-delay: 2.15s" />
    <circle cx="361.21212121212125" cy="269.19504643962847" r="4" fill="#dfb317" class="data-point" style="animation-delay: 2.20s" />
    <circle cx="382.7272727272727" cy="252.41685808449017" r="4" fill="#dfb317" class="data-point" style="animation-delay: 2.25s" />
    <circle cx="404.24242424242425" cy="238.30520323579347" r="4" fill="#dfb317" class="data-point" style="animation-delay: 2.30s" />
    <circle cx="425.75757575757575" cy="229.04723858983323" r="4" fill="#dfb317" class="data-point" style="animation-delay: 2.35s" />
    <circle cx="447.27272727272725" cy="220.1188455008489" r="4" fill="#dfb317" class="data-point" style="animation-delay: 2.40s" />
    <circle cx="468.7878787878788" cy="210.44142614601017" r="4" fill="#dfb317" class="data-point" style="animation-delay: 2.45s" />
    <circle cx="490.3030303030303" cy="179.46169979027263" r="4" fill="#dfb317" class="data-point" style="animation-delay: 2.50s" />
    <circle cx="511.8181818181818" cy="170.0539298911415" r="4" fill="#dfb317" class="data-point" style="animation-delay: 2.55s" />
    <circle cx="533.3333333333333" cy="158.45900329571558" r="4" fill="#dfb317" class="data-point" style="animation-delay: 2.60s" />
    <circle cx="554.8484848484849" cy="140.96174972535704" r="4" fill="#dfb317" class="data-point" style="animation-delay: 2.65s" />
    <circle cx="576.3636363636364" cy="134.19055228203337" r="4" fill="#dfb317" class="data-point" style="animation-delay: 2.70s" />
    <circle cx="597.8787878787879" cy="128.34814740836913" r="4" fill="#dfb317" class="data-point" style="animation-delay: 2.75s" />
    <circle cx="619.3939393939394" cy="122.74543093977829" r="4" fill="#dfb317" class="data-point" style="animation-delay: 2.80s" />
    <circle cx="640.909090909091" cy="118.5508838509937" r="4" fill="#dfb317" class="data-point" style="animation-delay: 2.85s" />
    <circle cx="662.4242424242425" cy="113.12793368620794" r="4" fill="#dfb317" class="data-point" style="animation-delay: 2.90s" />
    <circle cx="683.9393939393939" cy="106.77619095176271" r="4" fill="#dfb317" class="data-point" style="animation-delay: 2.95s" />
  </g>
</svg>